<svg height="112" viewBox="0 0 441 112" width="441" xmlns="http://www.w3.org/2000/svg"><g fill="#000105" fill-rule="evenodd"><g transform="translate(.92 .32)"><path d="m59.5519614 62.7615098c-4.4614798 0-8.0920802-3.613072-8.0920802-8.0548685s3.6306004-8.0548685 8.0920802-8.0548685c4.4623166 0 8.0929169 3.613072 8.0929169 8.0548685s-3.6306003 8.0548685-8.0929169 8.0548685zm16.4602834-8.0548685c0-9.0485049-7.3691397-16.3837574-16.4602834-16.3837574-9.090307 0-16.4594467 7.3352525-16.4594467 16.3837574 0 9.048505 7.3691397 16.3837575 16.4594467 16.3837575 9.0911437 0 16.4602834-7.3352525 16.4602834-16.3837575z"/><path d="m28.5600726 39.0708181h-7.3590989c-.155633 0-.298715.0857875-.3706743.2240471l-5.986014 11.4438934-6.02785085-11.4455592c-.07195935-.1365938-.21504132-.2223813-.37067433-.2223813h-8.0268147c-.14810239 0-.2853272.0774587-.3606335.2040578-.07530629.1265991-.0778165.2840151-.00669389.4131129l10.20567697 18.4601494v11.8794944c0 .2298773.187429.4164444.4183683.4164444h7.6712016c.2317761 0 .4183683-.1865671.4183683-.4164444v-11.9669477l10.1621667-18.3726961c.0711226-.1290978.0686124-.2865138-.0066939-.4131129s-.2125311-.2040578-.3606335-.2040578"/><path d="m178.689036 39.0708181h-6.867098c-.230939 0-.418368.1857342-.418368.4164444v19.326354l-9.013327-19.5004277c-.007531-.0158249-.023429-.022488-.032633-.0366472-5.934973-22.571289-26.596511-39.2765416-51.106201-39.2765416-21.380295 0-40.5198092 12.6890623-48.762502 32.3260838-.2962047.7079556.0393267 1.5200222.7497161 1.8165307.7103894.2931769 1.5270444-.0383129 1.8240859-.7462685 7.8067529-18.6009077 25.936326-30.61949442 46.1887-30.61949442 27.588881 0 50.034341 22.34307752 50.034341 49.80592302 0 27.4628456-22.44546 49.8050904-50.034341 49.8050904-18.5663497 0-35.5119403-10.1487514-44.2248791-26.4866999-.3606335-.6779716-1.204064-.9361672-1.8851677-.5746934-.6802669.359808-.9388185 1.19936-.5773483 1.8764987 9.1965726 17.2474632 27.0868389 27.9617456 46.6873951 27.9617456 26.700266 0 48.823583-19.8260869 52.327-45.4624071l4.785297 10.4977317c.067775.1482542.216715.2440364.380715.2440364h9.944615c.231776 0 .418368-.1865671.418368-.4164444v-30.5403701c0-.2307102-.186592-.4164444-.418368-.4164444"/><path d="m211.542664 39.0708181h-7.715549c-.230939 0-.418368.1857342-.418368.4164444v30.5403701c0 .2298773.187429.4164444.418368.4164444h7.715549c.230939 0 .418368-.1865671.418368-.4164444v-30.5403701c0-.2307102-.187429-.4164444-.418368-.4164444"/><path d="m262.891519 39.0708181h-7.313079c-.188265 0-.353103.1249333-.403307.3048373l-6.2203 22.3514064-6.264647-22.3522393c-.050204-.179904-.214205-.3040044-.402471-.3040044h-8.027651c-.132204 0-.256041.0616338-.335531.1674107-.078654.1057768-.102919.2423706-.064429.3681369l9.186532 30.54037c.052714.1765724.215878.2973413.400796.2973413h10.213208c.184919 0 .347246-.1207689.39996-.2965084l9.231716-30.5403701c.037653-.1265991.013387-.2631929-.065266-.3681369-.078653-.1057768-.203327-.1682435-.335531-.1682435"/><path d="m305.776782 63.2637418h-12.024742v-5.2038898h10.731984c.230939 0 .418368-.1865671.418368-.4164444v-6.1267307c0-.2298774-.187429-.4164445-.418368-.4164445h-10.731984v-4.849912h11.800497c.231776 0 .418368-.1865671.418368-.4164445v-6.3466134c0-.2307102-.186592-.4164444-.418368-.4164444h-19.933577c-.23094 0-.418369.1857342-.418369.4164444v30.5403701c0 .2298773.187429.4164444.418369.4164444h20.157822c.23094 0 .418369-.1865671.418369-.4164444v-6.3474463c0-.2307102-.187429-.4164445-.418369-.4164445"/><path d="m340.811783 52.1663302h-2.793864v-6.4473929h2.793864c2.563761 0 3.863213 1.0685964 3.863213 3.1774711 0 2.7027245-2.100209 3.2699218-3.863213 3.2699218zm6.959138 5.0273174c3.616376-1.5400116 5.679769-4.6208676 5.679769-8.5187877 0-5.8343867-4.418807-9.6040418-11.257455-9.6040418h-12.30756c-.231776 0-.418368.1857342-.418368.4164444v30.5403701c0 .2298773.186592.4164444.418368.4164444h7.713876c.231776 0 .418368-.1865671.418368-.4164444v-11.7478979h1.326228l5.816993 11.9294676c.070286.1432569.216715.2348747.377368.2348747h8.384938c.145592 0 .281143-.0757929.357286-.1998933.076144-.1241005.081164-.2781849.014225-.4072827z"/><path d="m387.6113 50.4972208-.175714-.0549706c-2.834028-.8961885-4.437215-1.4750463-4.437215-2.9667503 0-1.8548435 2.294332-2.2446355 4.218826-2.2446355 2.331985 0 4.78446.5688631 7.093017 1.6457884.128857.0591351.280307.0491405.401633-.0258195.120491-.0766258.194123-.2090551.194123-.3514791v-5.9026837c0-.134928-.066939-.26236-.176551-.3398186-1.230003-.8670374-4.459806-1.7648916-7.73563-1.7648916-7.601753 0-12.325131 3.6297298-12.325131 9.4707796 0 5.8168961 3.340252 8.1448205 8.355652 9.8514099l.605797.2015591c2.325291.772088 4.730073 1.5699956 4.730073 3.4448285 0 1.7857138-1.404045 2.6918969-4.175316 2.6918969-3.304273 0-6.877976-1.3817627-8.934674-2.5644649-.128858-.07496-.288674-.07496-.418369 0-.128857.0741271-.209184.2115538-.209184.359808v6.4382311c0 .134928.065266.2615272.176552.3398187 1.567207 1.1052436 5.215379 2.2962747 9.518716 2.2962747 7.796712 0 12.639744-4.0045298 12.639744-10.4510899 0-6.551504-4.731746-8.77032-9.346349-10.0737912"/><path d="m439.598585 63.2637418h-12.024742v-5.2038898h10.731984c.230939 0 .418368-.1865671.418368-.4164444v-6.1267307c0-.2298774-.187429-.4164445-.418368-.4164445h-10.731984v-4.849912h11.801333c.23094 0 .418369-.1865671.418369-.4164445v-6.3466134c0-.2307102-.187429-.4164444-.418369-.4164444h-19.934414c-.231776 0-.418368.1857342-.418368.4164444v30.5403701c0 .2298773.186592.4164444.418368.4164444h20.157823c.230939 0 .418368-.1865671.418368-.4164444v-6.3474463c0-.2307102-.187429-.4164445-.418368-.4164445"/><path d="m105.877049 39.0708181h-7.7155483c-.2309393 0-.4183683.1857342-.4183683.4164444v18.5101229c0 8.2397698 5.0413386 13.1579787 13.4856846 13.1579787 8.471959 0 13.530032-4.9182089 13.530032-13.1579787v-18.5101229c0-.2307102-.187429-.4164444-.418369-.4164444h-7.715548c-.23094 0-.418369.1857342-.418369.4164444v17.3574046c0 4.5567352-1.628289 6.7722196-4.977746 6.7722196-3.320171 0-4.933399-2.2154844-4.933399-6.7722196v-17.3574046c0-.2307102-.187429-.4164444-.418369-.4164444"/></g><g transform="translate(165.407942 82.440346)"><path d="m0 22.7728482h1.89688199v-13.65521346h-1.89688199z"/><path d="m6.93152642 9.11763474h1.89688199v11.98443836h6.15336129v1.6707751h-8.05024328z"/><path d="m28.8439858 11.0549343h-.1455921v11.7179139h-1.677657v-13.65521346h2.9662314l3.6490085 11.62213166h.219225l3.6239065-11.62213166h2.8700067v13.65521346h-1.7521266v-11.7179139h-.0970614l-3.7209679 11.7179139h-2.2616992z"/><path d="m45.5301881 9.11763474h8.0251413v1.62246756h-6.129096v4.2852134h5.7651155v1.6466213h-5.7651155v4.4542898h6.2269941v1.6466214h-8.1230394z"/><path d="m65.3524794 9.62652985v1.59831375c-.5840422-.3389857-1.7027591-.8237271-3.1134971-.8237271-1.750453 0-2.7486799.7745867-2.7486799 1.9614534 0 1.4042507 1.2651458 1.888992 2.7729453 2.4203751 2.0433109.7029582 3.9159275 1.6707751 3.9159275 4.2135849 0 2.5894516-2.0190455 4.0669965-4.6698272 4.0669965-1.9219841 0-3.3812528-.6055102-4.0615197-1.1385591v-1.7907111c.7538997.5563697 2.2859645 1.3317893 4.0129889 1.3317893 1.7270245 0 2.7963739-.8720347 2.7963739-2.2762853 0-1.6224676-1.5563301-2.2279778-2.9185374-2.7118863-2.1395356-.7745867-3.6967025-1.6457884-3.6967025-3.9703814 0-2.2271449 1.7755551-3.70385687 4.5727658-3.70385687 1.4350033 0 2.675047.45975467 3.1377624.82289422"/><path d="m70.7762064 9.11763474h8.0251412v1.62246756h-6.129096v4.2852134h5.7651156v1.6466213h-5.7651156v4.4542898h6.2269942v1.6466214h-8.1230394z"/><path d="m100.327235 15.8731966c0-3.0025645-2.1161073-5.0847867-5.4488294-5.0847867h-2.1395356v10.3136632h2.1395356c3.3327221 0 5.4488294-2.1296969 5.4488294-5.2288765zm-9.4860837-6.75556186h4.0372543c4.4757044 0 7.3942414 2.90594936 7.3942414 6.75556186 0 3.9462276-2.918537 6.8996516-7.3942414 6.8996516h-4.0372543z"/><path d="m107.015271 9.11763474h8.025978v1.62246756h-6.129096v4.2852134h5.764279v1.6466213h-5.764279v4.4542898h6.226157v1.6466214h-8.123039z"/><path d="m119.662545 9.11763474h1.897719v11.98443836h6.152525v1.6707751h-8.050244z"/><path d="m132.30982 9.11763474h1.896882v11.98443836h6.153361v1.6707751h-8.050243z"/><path d="m150.623475 10.4735779c-2.894272 0-5.033808 2.2762853-5.033808 5.47208s2.139536 5.4712472 5.033808 5.4712472c2.870843 0 5.011216-2.2754525 5.011216-5.4712472s-2.140373-5.47208-5.011216-5.47208zm0-1.66994227c3.98956 0 6.980894 3.09834667 6.980894 7.14202227 0 4.0428427-2.991334 7.1420223-6.980894 7.1420223-4.012989 0-6.980894-3.0991796-6.980894-7.1420223 0-4.0436756 2.967905-7.14202227 6.980894-7.14202227z"/><path d="m170.522746 22.3405788c1.829106 0 3.47162-1.1727075 3.47162-4.4118124 0-1.851512-.557266-3.5797565-.836736-5.9559885-1.643351 2.4070489-3.161192 4.4126453-4.433031 6.0176222.27947.1532516.434266.4939032.434266.8945227 0 .9561565-1.209084 1.1110738-1.209084 1.8206951 0 .6479876 1.054288 1.6349609 2.572965 1.6349609zm.123837.7404383c-2.851599 0-3.936846-1.9439627-3.936846-3.4248392 0-.8328889.371511-1.6657778 1.178125-1.7898782 1.983903-2.4678498 4.556868-5.9551556 6.478852-9.04100896.154796-.24653512.247674-.33898578.496185-.33898578.309592 0 .40247.21571822.309592.46225333-.123837.33981867-.186592.80207201-.186592 1.48170931 0 1.9439627.99237 4.2577281.99237 6.6955939 0 3.6413902-2.200618 5.9551556-5.331686 5.9551556z"/><path d="m190.333323 19.6561779.123837.0308169c.185755.0616338.248511.2165511.123837.4314365-1.147166 2.1605138-2.480088 2.9625858-3.750254 2.9625858-1.921984 0-2.232413-1.5733271-1.612391-2.9001192l3.100109-6.881328c1.085247-2.376232.589063-3.45565604-.868533-3.45565604-2.044984 0-4.028887 2.09804714-5.114134 4.41181244l-3.162865 8.0232188c-.153959.4014524-.309592.4939031-.743022.4939031h-.96141c-.31043 0-.43343-.2165511-.31043-.4939031l8.153162-20.73560198c.124674-.277352.093715-.43226933-.154796-.43226933h-1.301962c-.217552 0-.310429-.12326756-.217552-.30816889l.062756-.18573423c.123837-.27818489.216714-.33898578.495348-.33898578h1.39484c1.116206 0 1.737065-.27818489 2.015698-.27818489.216715 0 .27947.12410045.185756.33898578l-4.370276 11.10907212c1.022492-1.3884258 2.882558-2.65358405 4.835501-2.65358405 2.572966 0 3.285865 2.09804715 2.138699 4.59754675l-3.223946 7.0045956c-.558103 1.2343413-.496185 1.7898782.123837 1.7898782.68194 0 1.581432-.4939031 2.573802-2.3454151.123-.2157183.246837-.2465351.464389-.1849014"/><path d="m202.02086 16.9409601.402471-.9869733c1.952943-4.8140978.527144-6.38742495-1.673474-6.38742495-2.325291 0-3.564498 1.85067915-4.990297 5.36880185l-.403307.9869733c-1.952943 4.8140978-.527144 6.387425 1.673473 6.387425 2.357087 0 3.565335-1.8506792 4.991134-5.3688019zm-9.268532 1.2026916c0-4.6275307 4.246439-9.34917785 8.214244-9.34917785 2.572965 0 4.06152 2.22214755 4.06152 4.93736535 0 4.6283636-4.246439 9.3491779-8.215081 9.3491779-2.572965 0-4.060683-2.2213147-4.060683-4.9373654z"/><path d="m217.490448 16.0464375.186592-.4630863c1.705269-4.2585609.836736-6.01678935-1.208248-6.01678935-2.388046 0-4.371949 2.46784985-5.611156 5.36880185l-.27947.7087884-.061918.1857342c-1.643351 4.1352934-1.301963 6.4798757 1.11537 6.4798757 2.357087 0 4.279071-2.3445823 5.85883-6.2633245zm-9.795676 12.3733974c-.092878.277352-.184919.3398187-.464389.3398187h-5.45636c-.216715 0-.278633-.1241005-.216715-.3398187l.030959-.1849013c.092878-.2781849.216715-.3398187.496185-.3398187h1.332922c.278633 0 .465225-.1849013.558103-.4314365l6.29226-15.9848036c.496185-1.2343414.403307-1.78904539-.185756-1.78904539-.557266 0-1.425799.49307019-2.324454 2.34458229-.093715.2157182-.216715.2465351-.434267.1849013l-.123837-.0308169c-.216714-.0608009-.247674-.2157182-.154796-.4322693.991533-2.15884806 2.293495-2.96175295 3.501743-2.96175295 1.427473 0 1.95378 1.17270756 1.737065 2.31459825 1.178126-1.41924269 2.572966-2.31459825 4.339317-2.31459825 2.387209 0 3.658212 1.66661065 3.658212 4.28937785 0 4.5667298-3.782049 9.9971654-8.338917 9.9971654-1.736229 0-3.006395-.8637058-3.316824-2.4070489l-2.665843 6.7897102c-.092878.2465352-.03096.4314365.216715.4314365h1.364717c.216715 0 .247674.1232675.184919.3398187z"/><path d="m232.774279 16.0464375.186592-.4630863c1.70527-4.2585609.836737-6.01678935-1.209084-6.01678935-2.38721 0-4.371112 2.46784985-5.611156 5.36880185l-.27947.7087884-.061082.1857342c-1.643351 4.1352934-1.302799 6.4798757 1.11537 6.4798757 2.356251 0 4.278235-2.3445823 5.85883-6.2633245zm-9.795676 12.3733974c-.092878.277352-.185755.3398187-.465225.3398187h-5.455523c-.216715 0-.278634-.1241005-.216715-.3398187l.030959-.1849013c.092041-.2781849.216715-.3398187.496185-.3398187h1.332921c.278634 0 .464389-.1849013.558104-.4314365l6.292259-15.9848036c.496185-1.2343414.403307-1.78904539-.186592-1.78904539-.557266 0-1.425799.49307019-2.324454 2.34458229-.092878.2157182-.216715.2465351-.43343.1849013l-.124674-.0308169c-.216714-.0608009-.247674-.2157182-.153959-.4322693.991533-2.15884806 2.293495-2.96175295 3.501743-2.96175295 1.426636 0 1.95378 1.17270756 1.736228 2.31459825 1.178962-1.41924269 2.573802-2.31459825 4.340153-2.31459825 2.386373 0 3.658213 1.66661065 3.658213 4.28937785 0 4.5667298-3.782886 9.9971654-8.338918 9.9971654-1.736228 0-3.007231-.8637058-3.31766-2.4070489l-2.665007 6.7897102c-.093714.2465352-.030959.4314365.215878.4314365h1.364718c.216715 0 .247674.1232675.185755.3398187z"/><path d="m242.416832 3.70302403c0-.95615645.774819-1.60414401 1.643351-1.60414401.836737 0 1.301962.58635378 1.301962 1.29514223 0 .95698934-.744695 1.6049769-1.612391 1.6049769-.836737 0-1.332922-.58635378-1.332922-1.29597512zm.309593 16.41540727c-1.116207 2.1296969-2.572965 2.9625858-3.874091 2.9625858-1.798147 0-2.077617-1.5733271-1.519514-2.930936l3.596295-8.6712063c.496184-1.2343414.40247-1.78904539-.186593-1.78904539-.558103 0-1.425799.49307019-2.324454 2.34458229-.092878.2157182-.217552.2465351-.43343.1849013l-.124673-.0308169c-.217552-.0608009-.247674-.2157182-.154797-.4322693.960574-2.12803117 2.294332-2.96175295 3.533539-2.96175295 1.767188 0 2.170495 1.57332715 1.643351 2.90011915l-3.565335 8.6712063c-.527144 1.2651582-.495348 1.8206951.124674 1.8206951.558103 0 1.549636-.4939031 2.542006-2.3454151.123837-.2157183.278633-.3081689.496185-.2157183l.153959.0616338c.186592.0924507.217552.2165511.092878.4314365z"/><path d="m245.952045 12.219313-.123837-.0308169c-.216715-.0608009-.278634-.2157182-.154797-.4322693.960574-2.15884806 2.293496-2.96175295 3.50258-2.96175295 1.673473 0 2.10774 1.57332715 1.642514 2.77768445.99237-1.4500596 2.883395-2.77768445 4.898256-2.77768445 2.572966 0 3.286702 2.09804715 2.139536 4.59754675l-3.223946 7.0045956c-.558104 1.2343413-.497022 1.7898782.123 1.7898782.682777 0 1.581432-.4939031 2.573802-2.3454151.123837-.2157183.248511-.2465351.464389-.1849014l.124674.0308169c.184918.0616338.247674.2165511.123837.4314365-1.116207 2.1605138-2.480088 2.9625858-3.751091 2.9625858-1.921984 0-2.231576-1.5733271-1.612391-2.9001192l3.100109-6.881328c1.085247-2.376232.589063-3.45565604-.867696-3.45565604-2.108576 0-4.185357 2.25296444-5.238808 4.65918044l.061082-.1540844-3.099273 7.9299352c-.154796.4014524-.310429.4939031-.743859.4939031h-.96141c-.309593 0-.43343-.2165511-.309593-.4939031l4.277398-10.8000703c.496185-1.2343414.403307-1.78904539-.185756-1.78904539-.557266 0-1.425799.49307019-2.324454 2.34458229-.093714.2157182-.216715.2465351-.434266.1849013"/><path d="m270.256734 13.6693726.092878-.2148854c.96141-2.4994996.27947-4.07365957-1.673473-4.07365957-2.045821 0-3.007232 1.35760887-3.813009 3.39402227l-.093715.2165511c-1.053451 2.4686827-.278633 4.0728267 1.67431 4.0728267 2.046658 0 3.007232-1.3576089 3.813009-3.3948551zm-11.624782 11.6646089c0 1.8206952 1.643351 2.6227672 3.999601 2.6227672 4.060683 0 5.982667-2.3145983 5.982667-3.8571085 0-.7712551-.496185-1.326792-2.108576-1.5733271l-3.720131-.5555369c-.309593-.0308169-.557267-.0616338-.774818-.0616338-.589063 0-1.147166.2157182-1.70527.5863538-1.11537.7404382-1.673473 1.7582284-1.673473 2.8384853zm5.765952-7.9924018c-2.200617.0316498-3.100109.6488204-3.100109 1.5125262 0 .6788045.527144 1.0802569 2.325291 1.3576089l3.75109.5555369c1.859229.277352 2.634884 1.2035245 2.634884 2.406216 0 1.9131458-1.921984 5.5861859-7.656977 5.5861859-3.534376 0-5.394441-1.3884258-5.394441-3.2407707 0-2.0980472 2.449128-3.4248392 4.123438-3.9795432-.836737-.4022853-1.363881-1.0802569-1.363881-1.9756124 0-1.6666107 1.766351-2.7152178 3.843969-2.8085014-.682778-.5863538-1.085248-1.4808764-1.085248-2.5611333 0-3.1466543 3.409702-5.52288631 6.2613-5.52288631 1.178962 0 2.232414.40145245 2.945313 1.1102409.589063-1.07942401 1.395677-1.72741157 2.38721-1.72741157.743859 0 1.457595.36980267 1.457595 1.20269157 0 .58718667-.342225 1.26599111-1.271839 1.26599111-1.054288 0-.929615-.95615645-1.487718-.95615645-.309593 0-.558103.3081689-.558103.77042225 0 .2781849.434266.772088.434266 1.851512 0 3.0858534-3.410539 5.5853529-6.293096 5.5853529-.7129 0-1.363881-.1540844-1.952944-.4322693z"/></g></g></svg>