<svg height="117" viewBox="0 0 772 117" width="772" xmlns="http://www.w3.org/2000/svg" xmlns:xlink="http://www.w3.org/1999/xlink"><linearGradient id="a" x1="100%" x2="-6.334861%" y1="55.390956%" y2="41.669312%"><stop offset="0" stop-color="#f14343"/><stop offset=".242674074" stop-color="#ed64d2"/><stop offset=".601694814" stop-color="#e6b8fc"/><stop offset="1" stop-color="#7de3ff"/></linearGradient><g fill="none" fill-rule="evenodd"><text fill="#8a8a8a" font-family="Georgia-Italic, Georgia" font-size="40.32" font-style="italic" transform="translate(108.8 66.88)"><tspan x="0" y="37">I racconti inediti degli scrittori</tspan></text><g fill-rule="nonzero"><path d="m170.325628 21.3508779c9.185752 0 17.74874 8.3377516 17.74874 18.4677302 0 10.0520556-8.562988 18.5456531-17.74874 18.5456531-9.185751 0-17.826585-8.4935975-17.826585-18.5456531 0-10.1299786 8.640834-18.4677302 17.826585-18.4677302zm102.9894 0c7.86238 0 13.311555 2.5714561 13.311555 8.883212v22.3638758c0 1.2467666.467072 1.792227 1.401216 1.792227s1.634752-.4675375 2.33536-1.2467666l1.089835 1.4026124c-1.946133 2.5714561-5.293484 3.8182227-8.562988 3.8182227-4.125804 0-6.227628-1.792227-6.850391-4.2078373-2.101825 2.2597645-5.293484 4.2078373-9.419288 4.2078373-4.826411 0-9.107906-2.8831478-9.107906-9.0390578 0-8.6494433 8.640834-11.2208994 16.269679-11.9222056l2.101824-.2337687v-7.6364454c0-4.5974518-1.245525-6.0000642-5.371329-6.0000642-3.035969 0-4.982103.7792291-4.982103 1.714304 0 1.0129979 2.646742 1.4805354 2.646742 4.1299144 0 2.4156102-1.868288 4.1299143-4.359339 4.1299143-2.646742 0-4.281495-2.0259957-4.281495-4.441606 0-3.8961456 4.35934-7.7143683 13.778628-7.7143683zm114.19913 0c9.185751 0 17.74874 8.3377516 17.74874 18.4677302 0 10.0520556-8.562989 18.5456531-17.74874 18.5456531-9.185752 0-17.826586-8.4935975-17.826586-18.5456531 0-10.1299786 8.640834-18.4677302 17.826586-18.4677302zm175.337566 0c7.86238 0 13.311555 2.5714561 13.311555 8.883212v22.3638758c0 1.2467666.467072 1.792227 1.401216 1.792227s1.634753-.4675375 2.335361-1.2467666l1.089835 1.4026124c-1.946134 2.5714561-5.293484 3.8182227-8.562989 3.8182227-4.125803 0-6.227628-1.792227-6.850391-4.2078373-2.101824 2.2597645-5.293484 4.2078373-9.419287 4.2078373-4.826412 0-9.107906-2.8831478-9.107906-9.0390578 0-8.6494433 8.640834-11.2208994 16.269678-11.9222056l2.101825-.2337687v-7.6364454c0-4.5974518-1.245526-6.0000642-5.37133-6.0000642-3.035968 0-4.982102.7792291-4.982102 1.714304 0 1.0129979 2.646742 1.4805354 2.646742 4.1299144 0 2.4156102-1.868289 4.1299143-4.35934 4.1299143-2.646742 0-4.281494-2.0259957-4.281494-4.441606 0-3.8961456 4.359339-7.7143683 13.778627-7.7143683zm-80.025021 0c7.862381 0 15.41338 6.6234475 15.41338 15.117045v.7013062h-21.096091v3.9740685c0 8.6494432 1.790443 14.4157387 8.095917 14.4936616 5.215638 0 9.574978-3.9740685 11.676803-9.8962098l1.634752.7013062c-2.413206 6.9351392-7.317463 11.9222056-14.712771 11.9222056-9.419288 0-17.826586-8.02606-17.826586-18.5456531 0-10.4416702 8.251607-18.4677302 16.814596-18.4677302zm-24.44344-21.3508779v54.3122697c0 .7013062.467072 1.0909208 1.089835 1.0909208h3.503041v2.1039186l-5.832001.0007613c-3.16008.0057098-6.687364.0542431-8.335853.4667762h-1.089835v-4.5974518c-1.556907 3.1169165-4.203649 4.9870664-8.407298 4.9870664-8.640834 0-16.036143-8.4156745-16.036143-18.5456531s7.395309-18.4677302 16.036143-18.4677302c4.203649 0 6.850391 1.8701499 8.407298 4.9091435v-22.36387579c0-.6233833-.389227-1.01299786-1.01199-1.01299786h-3.580886v-2.10391863h4.592876c3.425195 0 7.784535-.31169165 9.652823-.77922912zm-436.8979461 3.74029978c15.7247609 0 27.5572543 12.15597432 27.5572543 26.96132762 0 14.7274304-11.8324934 26.8054817-27.5572543 26.8054817h-21.4853169v-2.1039186h3.58088615c.93414421 0 1.47906167-.5454604 1.47906167-1.4026124v-46.75374727c0-.85715204-.54491746-1.40261242-1.47906167-1.40261242h-3.58088615v-2.10391863zm46.4736746 17.61057812v32.9613918c0 .6233833.3892267 1.0909208 1.0898349 1.0909208h3.5030408v2.1039186h-19.9284099v-2.1039186h3.6587315c.6227628 0 1.0119896-.4675375 1.0119896-1.0909208v-29.0652462c0-.6233833-.3892268-1.0129978-1.0119896-1.0129978h-3.6587315v-2.1039187h4.6707211c3.4251954 0 7.7845351-.3116916 9.6528235-.7792291zm57.4498695.7792291v1.4026125l-16.736751 31.7925481h6.383319c5.760556 0 8.095916-2.8052248 8.718679-8.4935974l.155691-2.1818416h2.17967l-.311382 12.8572805h-28.8806249v-1.4026124l16.8924409-31.7925481h-6.149782c-5.215639 0-7.395309 2.4935332-7.862381 7.7922912l-.233536 2.1818415h-2.1796698l.3892267-12.1559743zm413.933567-22.130107v54.3122697c0 .6233833.389227 1.0909208 1.089835 1.0909208h3.503041v2.1039186h-19.92841v-2.1039186h3.658731c.622763 0 1.01199-.4675375 1.01199-1.0909208v-50.41612409c0-.6233833-.389227-1.01299786-1.01199-1.01299786h-3.658731v-2.10391863h4.670721c2.880278 0 8.095916-.31169165 9.652823-.77922912zm-394.47223 21.3508779v32.9613918c0 .6233833.389227 1.0909208 1.089835 1.0909208h3.503041v2.1039186h-19.92841v-2.1039186h3.658732c.622762 0 1.011989-.4675375 1.011989-1.0909208v-29.0652462c0-.6233833-.389227-1.0129978-1.011989-1.0129978h-3.658732v-2.1039187h4.670721c3.425196 0 7.784535-.3116916 9.652824-.7792291zm94.27072-.0779229c7.083927 0 11.05404 4.3636831 11.05404 10.3637473v22.6755674c0 .6233833.467072 1.0909208 1.089835 1.0909208h3.503041v2.1039186h-19.772719v-2.1039186h3.425195c.622763 0 1.089835-.4675375 1.089835-1.0909208v-21.8184154c0-5.1429122-.856299-8.0260599-4.125803-8.0260599-4.203649 0-7.784536 4.9091435-7.784536 9.740364v20.1041113c0 .6233833.389227 1.0909208 1.089835 1.0909208h3.34735v2.1039186h-19.772719v-2.1039186h3.658732c.622763 0 1.011989-.4675375 1.011989-1.0909208v-29.0652462c0-.6233833-.389226-1.0129978-1.011989-1.0129978h-3.658732v-2.1039187h4.670721c3.425196 0 7.784535-.3116916 9.652824-.7792291h1.011989v7.1689079c1.01199-3.2727623 4.592876-7.2468308 11.521112-7.2468308zm277.704203-21.272955v54.3122697c0 .6233833.389227 1.0909208 1.089835 1.0909208h3.503041v2.1039186h-19.92841v-2.1039186h3.658732c.622763 0 1.011989-.4675375 1.011989-1.0909208v-50.41612409c0-.6233833-.389226-1.01299786-1.011989-1.01299786h-3.658732v-2.10391863h4.670721c2.880278 0 8.095917-.31169165 9.652824-.77922912zm-178.373535 21.272955c3.892268 0 6.616855 2.5714561 6.616855 6.0000642 0 3.3506853-2.33536 5.2208351-5.059948 5.2208351-2.802432 0-4.904257-1.9480728-4.904257-4.8312205 0-1.4026124.622763-2.1818415.622763-2.649379 0-.1558458-.155691-.3116917-.467072-.3116917-2.257515 0-5.371329 5.376681-5.371329 11.7663598v17.8443468c0 .6233833.389227 1.0909208 1.089835 1.0909208h3.50304v2.1039186h-19.928409v-2.1039186h3.658731c.622763 0 1.01199-.4675375 1.01199-1.0909208v-29.0652462c0-.6233833-.389227-1.0129978-1.01199-1.0129978h-3.658731v-2.1039187h4.670721c3.425195 0 7.784535-.3116916 9.652823-.7792291h1.01199v7.2468308c.934144-3.0389935 3.658731-7.3247537 8.562988-7.3247537zm23.587142.0779229v32.9613918c0 .6233833.389226 1.0909208 1.089835 1.0909208h3.50304v2.1039186h-19.928409v-2.1039186h3.658731c.622763 0 1.01199-.4675375 1.01199-1.0909208v-29.0652462c0-.6233833-.389227-1.0129978-1.01199-1.0129978h-3.658731v-2.1039187h4.670721c3.425195 0 7.784535-.3116916 9.652823-.7792291zm-191.7331 2.0259957c-4.904257 0-6.6947 3.8961456-6.6947 15.117045v2.649379c0 11.2208993 1.790443 15.1949679 6.6947 15.1949679s6.616855-3.8961457 6.616855-15.117045v-2.649379c0-11.2988223-1.712598-15.1949679-6.616855-15.1949679zm217.18853 0c-4.904258 0-6.694701 3.8961456-6.694701 15.117045v2.649379c0 11.2208993 1.790443 15.1949679 6.694701 15.1949679 4.904257 0 6.616854-3.8961457 6.616854-15.117045v-2.649379c0-11.2988223-1.712597-15.1949679-6.616854-15.1949679zm53.276055.2337688c-5.059947 0-6.461164 5.8442184-6.461164 14.8832762v2.649379c0 9.0390578 1.401217 14.9611991 6.461164 14.9611991 5.293484 0 6.928237-5.8442184 6.928237-14.8832762v-2.649379c0-9.1169807-1.634753-14.9611991-6.928237-14.9611991zm-419.3048961-17.53265526h-3.2695048c-.9341442 0-1.4790616.54546039-1.4790616 1.48053533v46.20828693c0 .857152.5449174 1.4026124 1.4790616 1.4026124h3.2695048c10.8983491 0 14.7906167-7.6364454 14.7906167-21.1950321v-6.3117559c0-13.7144325-3.9701129-21.58464666-14.7906167-21.58464666zm254.3986071 32.88346896-1.479062.1558458c-5.994092.7013062-7.550999 4.6753747-7.550999 8.2598287 0 3.6623768 1.634753 6.4676017 5.059948 6.4676017 1.790443 0 3.035969-.7792292 3.970113-1.6363812zm289.536697 0-1.479062.1558458c-5.994092.7013062-7.550999 4.6753747-7.550999 8.2598287 0 3.6623768 1.634752 6.4676017 5.059948 6.4676017 1.790443 0 3.035968-.7792292 3.970113-1.6363812zm-262.680051-9.5845182c4.826412 0 8.87437 4.1299143 8.87437 8.6494432 0 4.6753747-4.047958 8.7273662-8.87437 8.7273662-4.670721 0-8.796524-4.0519915-8.796524-8.7273662 0-4.5195289 4.125803-8.6494432 8.796524-8.6494432zm-102.288791 0c4.826412 0 8.87437 4.1299143 8.87437 8.6494432 0 4.6753747-4.047958 8.7273662-8.87437 8.7273662-4.670721 0-8.796525-4.0519915-8.796525-8.7273662 0-4.5195289 4.125804-8.6494432 8.796525-8.6494432zm-115.9895731 0c4.8264118 0 8.87437 4.1299143 8.87437 8.6494432 0 4.6753747-4.0479582 8.7273662-8.87437 8.7273662-4.6707211 0-8.7965247-4.0519915-8.7965247-8.7273662 0-4.5195289 4.1258036-8.6494432 8.7965247-8.6494432zm398.4423421-6.0779872c-3.814422 0-5.371329 4.5974518-5.68271 12.0001285h10.742658c-.077845-7.3247538-1.089835-12.0001285-5.059948-12.0001285zm-214.727314-20.41580295c2.568897 0 3.814423 1.87014989 5.449175 5.61044967l3.892267 8.72736618h-1.479061l-8.173762-5.6883726c-1.868288-1.0909208-3.425195-2.80522484-3.425195-4.98706638 0-1.94807281 1.556907-3.66237687 3.736576-3.66237687zm-128.989746.54546038c3.113814 0 5.760556 2.5714561 5.760556 5.68837259 0 3.03899358-2.646742 5.61044968-5.760556 5.61044968s-5.682711-2.5714561-5.682711-5.61044968c0-3.11691649 2.568897-5.68837259 5.682711-5.68837259zm217.188529 0c3.113814 0 5.760556 2.5714561 5.760556 5.68837259 0 3.03899358-2.646742 5.61044968-5.760556 5.61044968s-5.682711-2.5714561-5.682711-5.61044968c0-3.11691649 2.568897-5.68837259 5.682711-5.68837259zm-294.0997362 0c3.1138141 0 5.760556 2.5714561 5.760556 5.68837259 0 3.03899358-2.6467419 5.61044968-5.760556 5.61044968-3.113814 0-5.6827106-2.5714561-5.6827106-5.61044968 0-3.11691649 2.5688966-5.68837259 5.6827106-5.68837259z" fill="#000"/><path d="m608.05903 57.5071091v-2.1039186h-4.133621c-1.169893 0-1.871828-.7013062-1.871828-1.8701499v-44.10436824l15.832548 48.07843674h2.105807l15.676563-48.00051382v44.49398282c0 .857152-.54595 1.4026124-1.481864 1.4026124h-4.211614v2.1039186h22.539933v-2.1039186h-3.665664c-.935914 0-1.403871-.5454604-1.403871-1.4026124v-46.75374727c0-.85715204.467957-1.40261242 1.403871-1.40261242h3.665664v-2.10391863h-17.782369l-11.464949 35.37700212-11.620935-35.37700212h-17.392405v2.10391863h3.119714c1.169892 0 1.871828.70130621 1.871828 1.79222698v45.89659521c0 1.1688437-.701936 1.8701499-1.871828 1.8701499h-3.119714v2.1039186zm65.591987.8571521c9.203156 0 17.782369-8.4935975 17.782369-18.5456531 0-10.1299786-8.579213-18.4677302-17.782369-18.4677302-9.203157 0-17.860363 8.3377516-17.860363 18.4677302 0 10.0520556 8.657206 18.5456531 17.860363 18.5456531zm0-2.0259957c-4.91355 0-6.707386-3.9740686-6.707386-15.1949679v-2.649379c0-11.2208994 1.793836-15.117045 6.707386-15.117045 4.913549 0 6.629392 3.8961456 6.629392 15.1949679v2.649379c0 11.2208993-1.715843 15.117045-6.629392 15.117045zm37.51456 2.0259957c4.211614 0 6.863371-1.8701499 8.423228-4.9870664v4.5974518h1.0919c1.651613-.4125331 5.18558-.4610664 8.351648-.4667762l5.843051-.0007613v-2.1039186h-3.509679c-.623942 0-1.0919-.3896146-1.0919-1.0909208v-54.3122697h-1.013907c-1.871828.46753747-6.239428.77922912-9.671113.77922912h-4.601578v2.10391863h3.587671c.623943 0 1.013907.38961456 1.013907 1.01299786v22.36387579c-1.559857-3.0389936-4.211614-4.9091435-8.423228-4.9091435-8.657206 0-16.066527 8.3377516-16.066527 18.4677302s7.409321 18.5456531 16.066527 18.5456531zm1.481864-2.2597645c-5.069535 0-6.473406-5.9221413-6.473406-14.9611991v-2.649379c0-9.0390578 1.403871-14.8832762 6.473406-14.8832762 5.303514 0 6.941364 5.8442184 6.941364 14.9611991v2.649379c0 9.0390578-1.63785 14.8832762-6.941364 14.8832762zm50.773346 2.2597645c3.275699 0 6.629392-1.2467666 8.579213-3.8182227l-1.0919-1.4026124c-.701936.7792291-1.403871 1.2467666-2.339785 1.2467666-.935915 0-1.403872-.5454604-1.403872-1.792227v-22.3638758c0-6.3117559-5.459499-8.883212-13.336777-8.883212-9.437135 0-13.804734 3.8182227-13.804734 7.7143683 0 2.4156103 1.637849 4.441606 4.289606 4.441606 2.495772 0 4.3676-1.7143041 4.3676-4.1299143 0-2.649379-2.651757-3.1169165-2.651757-4.1299144 0-.9350749 1.949821-1.714304 4.991542-1.714304 4.133621 0 5.381507 1.4026124 5.381507 6.0000642v7.6364454l-2.105807.2337687c-7.643299.7013062-16.300505 3.2727623-16.300505 11.9222056 0 6.15591 4.289606 9.0390578 9.125163 9.0390578 4.133621 0 7.331328-1.9480728 9.437135-4.2078373.623943 2.4156103 2.729749 4.2078373 6.863371 4.2078373zm-10.996992-4.5195289c-3.431686 0-5.069536-2.8052249-5.069536-6.4676017 0-3.584454 1.559857-7.5585225 7.565307-8.2598287l1.481864-.1558458v13.246895c-.935914.857152-2.1838 1.6363812-3.977635 1.6363812z" fill="url(#a)"/></g></g></svg>